# xmcd CD database file
#
# Track frame offsets:
#	183
#	18848
#	34973
#	55330
#	68988
#	88980
#	108698
#	122980
#	136495
#	152188
#
# Disc length: 2296 seconds
#
# Revision: 2
# Processed by: cddbd v1.5.2PL0 Copyright (c) Steve Scherf et al.
# Submitted via: CDex 1.51
#
DISCID=9308f60a
DTITLE=Ronny Cox - Ronny Cox
DYEAR=1993
DGENRE=Folk
TTITLE0=A Horse Called Music
TTITLE1=From Here To There
TTITLE2=Grady
TTITLE3=Milkbone Underwear
TTITLE4=The Cowboy Rides
TTITLE5=I'll Waltz You Home
TTITLE6=Santa Ana Winds
TTITLE7=Is This Gonna Hurt Again
TTITLE8=Roll Down Your Windows
TTITLE9=The Night John Huston Died
EXTD=YEAR: 1993
EXTT0=
EXTT1=
EXTT2=
EXTT3=
EXTT4=
EXTT5=
EXTT6=
EXTT7=
EXTT8=
EXTT9=
PLAYORDER=
